<mxfile host="app.diagrams.net" agent="Mozilla/5.0 (X11; Linux x86_64; rv:138.0) Gecko/20100101 Firefox/138.0" version="27.0.6">
  <diagram name="Page-1" id="7gjW1VLMk3NdF_tn8OFd">
    <mxGraphModel dx="1426" dy="766" grid="1" gridSize="10" guides="1" tooltips="1" connect="1" arrows="1" fold="1" page="1" pageScale="1" pageWidth="850" pageHeight="1100" math="0" shadow="0">
      <root>
        <mxCell id="0" />
        <mxCell id="1" parent="0" />
        <mxCell id="LZqOGTRee8LFNaiyRL-V-2" value="Users" style="text;html=1;align=left;verticalAlign=middle;whiteSpace=wrap;rounded=0;fontStyle=1;fontSize=18;" parent="1" vertex="1">
          <mxGeometry x="40" width="100" height="40" as="geometry" />
        </mxCell>
        <mxCell id="LZqOGTRee8LFNaiyRL-V-3" value="Salt" style="whiteSpace=wrap;html=1;align=center;" parent="1" vertex="1">
          <mxGeometry x="440" y="40" width="100" height="40" as="geometry" />
        </mxCell>
        <mxCell id="LZqOGTRee8LFNaiyRL-V-4" value="Password" style="whiteSpace=wrap;html=1;align=center;" parent="1" vertex="1">
          <mxGeometry x="340" y="40" width="100" height="40" as="geometry" />
        </mxCell>
        <mxCell id="LZqOGTRee8LFNaiyRL-V-5" value="API_Key" style="whiteSpace=wrap;html=1;align=center;fontStyle=4" parent="1" vertex="1">
          <mxGeometry x="40" y="40" width="100" height="40" as="geometry" />
        </mxCell>
        <mxCell id="LZqOGTRee8LFNaiyRL-V-6" value="fName" style="whiteSpace=wrap;html=1;align=center;" parent="1" vertex="1">
          <mxGeometry x="140" y="40" width="100" height="40" as="geometry" />
        </mxCell>
        <mxCell id="LZqOGTRee8LFNaiyRL-V-7" value="Products" style="text;html=1;align=left;verticalAlign=middle;whiteSpace=wrap;rounded=0;fontStyle=1;fontSize=18;" parent="1" vertex="1">
          <mxGeometry x="40" y="450" width="100" height="40" as="geometry" />
        </mxCell>
        <mxCell id="LZqOGTRee8LFNaiyRL-V-8" value="ProductID" style="whiteSpace=wrap;html=1;align=center;fontStyle=4" parent="1" vertex="1">
          <mxGeometry x="40" y="490" width="100" height="40" as="geometry" />
        </mxCell>
        <mxCell id="LZqOGTRee8LFNaiyRL-V-13" value="Category" style="whiteSpace=wrap;html=1;align=center;" parent="1" vertex="1">
          <mxGeometry x="440" y="490" width="100" height="40" as="geometry" />
        </mxCell>
        <mxCell id="LZqOGTRee8LFNaiyRL-V-14" value="Brand" style="whiteSpace=wrap;html=1;align=center;" parent="1" vertex="1">
          <mxGeometry x="340" y="490" width="100" height="40" as="geometry" />
        </mxCell>
        <mxCell id="LZqOGTRee8LFNaiyRL-V-15" value="Description" style="whiteSpace=wrap;html=1;align=center;" parent="1" vertex="1">
          <mxGeometry x="240" y="490" width="100" height="40" as="geometry" />
        </mxCell>
        <mxCell id="LZqOGTRee8LFNaiyRL-V-16" value="Name" style="whiteSpace=wrap;html=1;align=center;" parent="1" vertex="1">
          <mxGeometry x="140" y="490" width="100" height="40" as="geometry" />
        </mxCell>
        <mxCell id="LZqOGTRee8LFNaiyRL-V-17" value="Retailers" style="text;html=1;align=left;verticalAlign=middle;whiteSpace=wrap;rounded=0;fontStyle=1;fontSize=18;" parent="1" vertex="1">
          <mxGeometry x="40" y="770" width="100" height="40" as="geometry" />
        </mxCell>
        <mxCell id="LZqOGTRee8LFNaiyRL-V-18" value="RetailerID" style="whiteSpace=wrap;html=1;align=center;fontStyle=4" parent="1" vertex="1">
          <mxGeometry x="40" y="810" width="100" height="40" as="geometry" />
        </mxCell>
        <mxCell id="LZqOGTRee8LFNaiyRL-V-19" value="URL" style="whiteSpace=wrap;html=1;align=center;" parent="1" vertex="1">
          <mxGeometry x="240" y="810" width="100" height="40" as="geometry" />
        </mxCell>
        <mxCell id="LZqOGTRee8LFNaiyRL-V-20" value="Name" style="whiteSpace=wrap;html=1;align=center;" parent="1" vertex="1">
          <mxGeometry x="140" y="810" width="100" height="40" as="geometry" />
        </mxCell>
        <mxCell id="LZqOGTRee8LFNaiyRL-V-21" value="Preferences" style="text;html=1;align=left;verticalAlign=middle;whiteSpace=wrap;rounded=0;fontStyle=1;fontSize=18;" parent="1" vertex="1">
          <mxGeometry x="40" y="330" width="110" height="40" as="geometry" />
        </mxCell>
        <mxCell id="LZqOGTRee8LFNaiyRL-V-22" value="Theme" style="whiteSpace=wrap;html=1;align=center;" parent="1" vertex="1">
          <mxGeometry x="140" y="370" width="100" height="40" as="geometry" />
        </mxCell>
        <mxCell id="LZqOGTRee8LFNaiyRL-V-24" value="Sort" style="whiteSpace=wrap;html=1;align=center;" parent="1" vertex="1">
          <mxGeometry x="240" y="370" width="100" height="40" as="geometry" />
        </mxCell>
        <mxCell id="LZqOGTRee8LFNaiyRL-V-26" style="edgeStyle=orthogonalEdgeStyle;rounded=0;orthogonalLoop=1;jettySize=auto;html=1;exitX=0.5;exitY=0;exitDx=0;exitDy=0;" parent="1" source="LZqOGTRee8LFNaiyRL-V-25" target="LZqOGTRee8LFNaiyRL-V-5" edge="1">
          <mxGeometry relative="1" as="geometry">
            <mxPoint x="110" y="110" as="targetPoint" />
            <Array as="points">
              <mxPoint x="90" y="430" />
              <mxPoint x="550" y="430" />
              <mxPoint x="550" y="160" />
              <mxPoint x="60" y="160" />
            </Array>
          </mxGeometry>
        </mxCell>
        <mxCell id="LZqOGTRee8LFNaiyRL-V-25" value="Key" style="whiteSpace=wrap;html=1;align=center;fontStyle=4" parent="1" vertex="1">
          <mxGeometry x="40" y="370" width="100" height="40" as="geometry" />
        </mxCell>
        <mxCell id="LZqOGTRee8LFNaiyRL-V-27" value="Wishlists" style="text;html=1;align=left;verticalAlign=middle;whiteSpace=wrap;rounded=0;fontStyle=1;fontSize=18;" parent="1" vertex="1">
          <mxGeometry x="40" y="930" width="100" height="40" as="geometry" />
        </mxCell>
        <mxCell id="LZqOGTRee8LFNaiyRL-V-28" value="Carts" style="text;html=1;align=left;verticalAlign=middle;whiteSpace=wrap;rounded=0;fontStyle=1;fontSize=18;" parent="1" vertex="1">
          <mxGeometry x="40" y="1070" width="100" height="40" as="geometry" />
        </mxCell>
        <mxCell id="LZqOGTRee8LFNaiyRL-V-56" style="edgeStyle=orthogonalEdgeStyle;rounded=0;orthogonalLoop=1;jettySize=auto;html=1;exitX=0.5;exitY=1;exitDx=0;exitDy=0;" parent="1" source="LZqOGTRee8LFNaiyRL-V-30" target="LZqOGTRee8LFNaiyRL-V-5" edge="1">
          <mxGeometry relative="1" as="geometry">
            <mxPoint x="600" y="250" as="targetPoint" />
            <Array as="points">
              <mxPoint x="90" y="1030" />
              <mxPoint x="560" y="1030" />
              <mxPoint x="560" y="150" />
              <mxPoint x="80" y="150" />
            </Array>
          </mxGeometry>
        </mxCell>
        <mxCell id="LZqOGTRee8LFNaiyRL-V-30" value="Key" style="whiteSpace=wrap;html=1;align=center;fontStyle=4" parent="1" vertex="1">
          <mxGeometry x="40" y="970" width="100" height="40" as="geometry" />
        </mxCell>
        <mxCell id="LZqOGTRee8LFNaiyRL-V-58" style="edgeStyle=orthogonalEdgeStyle;rounded=0;orthogonalLoop=1;jettySize=auto;html=1;exitX=0.5;exitY=1;exitDx=0;exitDy=0;" parent="1" source="LZqOGTRee8LFNaiyRL-V-31" target="LZqOGTRee8LFNaiyRL-V-5" edge="1">
          <mxGeometry relative="1" as="geometry">
            <mxPoint x="250" y="480" as="targetPoint" />
            <Array as="points">
              <mxPoint x="90" y="1190" />
              <mxPoint x="570" y="1190" />
              <mxPoint x="570" y="140" />
              <mxPoint x="100" y="140" />
            </Array>
          </mxGeometry>
        </mxCell>
        <mxCell id="LZqOGTRee8LFNaiyRL-V-31" value="Key" style="whiteSpace=wrap;html=1;align=center;fontStyle=4" parent="1" vertex="1">
          <mxGeometry x="40" y="1110" width="100" height="40" as="geometry" />
        </mxCell>
        <mxCell id="LZqOGTRee8LFNaiyRL-V-59" style="edgeStyle=orthogonalEdgeStyle;rounded=0;orthogonalLoop=1;jettySize=auto;html=1;exitX=0.5;exitY=1;exitDx=0;exitDy=0;" parent="1" source="LZqOGTRee8LFNaiyRL-V-32" target="LZqOGTRee8LFNaiyRL-V-8" edge="1">
          <mxGeometry relative="1" as="geometry">
            <mxPoint x="240" y="550" as="targetPoint" />
            <Array as="points">
              <mxPoint x="190" y="1180" />
              <mxPoint x="360" y="1180" />
              <mxPoint x="360" y="580" />
              <mxPoint x="80" y="580" />
            </Array>
          </mxGeometry>
        </mxCell>
        <mxCell id="LZqOGTRee8LFNaiyRL-V-32" value="PID" style="whiteSpace=wrap;html=1;align=center;fontStyle=4" parent="1" vertex="1">
          <mxGeometry x="140" y="1110" width="100" height="40" as="geometry" />
        </mxCell>
        <mxCell id="LZqOGTRee8LFNaiyRL-V-57" style="edgeStyle=orthogonalEdgeStyle;rounded=0;orthogonalLoop=1;jettySize=auto;html=1;exitX=0.5;exitY=1;exitDx=0;exitDy=0;" parent="1" source="LZqOGTRee8LFNaiyRL-V-33" target="LZqOGTRee8LFNaiyRL-V-8" edge="1">
          <mxGeometry relative="1" as="geometry">
            <mxPoint x="50" y="540" as="targetPoint" />
            <Array as="points">
              <mxPoint x="190" y="1020" />
              <mxPoint x="350" y="1020" />
              <mxPoint x="350" y="590" />
              <mxPoint x="60" y="590" />
            </Array>
          </mxGeometry>
        </mxCell>
        <mxCell id="LZqOGTRee8LFNaiyRL-V-33" value="PID" style="whiteSpace=wrap;html=1;align=center;fontStyle=4" parent="1" vertex="1">
          <mxGeometry x="140" y="970" width="100" height="40" as="geometry" />
        </mxCell>
        <mxCell id="LZqOGTRee8LFNaiyRL-V-34" value="Quantity" style="whiteSpace=wrap;html=1;align=center;" parent="1" vertex="1">
          <mxGeometry x="240" y="1110" width="100" height="40" as="geometry" />
        </mxCell>
        <mxCell id="LZqOGTRee8LFNaiyRL-V-35" value="ProductRatings" style="text;html=1;align=left;verticalAlign=middle;whiteSpace=wrap;rounded=0;fontStyle=1;fontSize=18;" parent="1" vertex="1">
          <mxGeometry x="40" y="1230" width="100" height="40" as="geometry" />
        </mxCell>
        <mxCell id="LZqOGTRee8LFNaiyRL-V-60" style="edgeStyle=orthogonalEdgeStyle;rounded=0;orthogonalLoop=1;jettySize=auto;html=1;exitX=0.5;exitY=1;exitDx=0;exitDy=0;" parent="1" source="LZqOGTRee8LFNaiyRL-V-36" target="LZqOGTRee8LFNaiyRL-V-5" edge="1">
          <mxGeometry relative="1" as="geometry">
            <mxPoint x="490" y="720" as="targetPoint" />
            <Array as="points">
              <mxPoint x="90" y="1350" />
              <mxPoint x="580" y="1350" />
              <mxPoint x="580" y="130" />
              <mxPoint x="120" y="130" />
            </Array>
          </mxGeometry>
        </mxCell>
        <mxCell id="LZqOGTRee8LFNaiyRL-V-36" value="Key" style="whiteSpace=wrap;html=1;align=center;fontStyle=4" parent="1" vertex="1">
          <mxGeometry x="40" y="1270" width="100" height="40" as="geometry" />
        </mxCell>
        <mxCell id="LZqOGTRee8LFNaiyRL-V-61" style="edgeStyle=orthogonalEdgeStyle;rounded=0;orthogonalLoop=1;jettySize=auto;html=1;exitX=0.5;exitY=1;exitDx=0;exitDy=0;" parent="1" source="LZqOGTRee8LFNaiyRL-V-37" target="LZqOGTRee8LFNaiyRL-V-8" edge="1">
          <mxGeometry relative="1" as="geometry">
            <mxPoint x="110" y="520" as="targetPoint" />
            <Array as="points">
              <mxPoint x="190" y="1340" />
              <mxPoint x="710" y="1340" />
              <mxPoint x="710" y="570" />
              <mxPoint x="100" y="570" />
            </Array>
          </mxGeometry>
        </mxCell>
        <mxCell id="LZqOGTRee8LFNaiyRL-V-37" value="PID" style="whiteSpace=wrap;html=1;align=center;fontStyle=4" parent="1" vertex="1">
          <mxGeometry x="140" y="1270" width="100" height="40" as="geometry" />
        </mxCell>
        <mxCell id="LZqOGTRee8LFNaiyRL-V-38" value="Date" style="whiteSpace=wrap;html=1;align=center;" parent="1" vertex="1">
          <mxGeometry x="440" y="1270" width="100" height="40" as="geometry" />
        </mxCell>
        <mxCell id="LZqOGTRee8LFNaiyRL-V-39" value="Comment" style="whiteSpace=wrap;html=1;align=center;" parent="1" vertex="1">
          <mxGeometry x="340" y="1270" width="100" height="40" as="geometry" />
        </mxCell>
        <mxCell id="LZqOGTRee8LFNaiyRL-V-40" value="Rating" style="whiteSpace=wrap;html=1;align=center;" parent="1" vertex="1">
          <mxGeometry x="240" y="1270" width="100" height="40" as="geometry" />
        </mxCell>
        <mxCell id="LZqOGTRee8LFNaiyRL-V-41" value="Listings" style="text;html=1;align=left;verticalAlign=middle;whiteSpace=wrap;rounded=0;fontStyle=1;fontSize=18;" parent="1" vertex="1">
          <mxGeometry x="40" y="1390" width="100" height="40" as="geometry" />
        </mxCell>
        <mxCell id="LZqOGTRee8LFNaiyRL-V-65" style="edgeStyle=orthogonalEdgeStyle;rounded=0;orthogonalLoop=1;jettySize=auto;html=1;exitX=0.5;exitY=1;exitDx=0;exitDy=0;" parent="1" source="LZqOGTRee8LFNaiyRL-V-42" target="LZqOGTRee8LFNaiyRL-V-8" edge="1">
          <mxGeometry relative="1" as="geometry">
            <mxPoint x="290" y="900" as="targetPoint" />
            <Array as="points">
              <mxPoint x="190" y="1510" />
              <mxPoint x="720" y="1510" />
              <mxPoint x="720" y="560" />
              <mxPoint x="120" y="560" />
            </Array>
          </mxGeometry>
        </mxCell>
        <mxCell id="LZqOGTRee8LFNaiyRL-V-42" value="PID" style="whiteSpace=wrap;html=1;align=center;fontStyle=4" parent="1" vertex="1">
          <mxGeometry x="140" y="1430" width="100" height="40" as="geometry" />
        </mxCell>
        <mxCell id="LZqOGTRee8LFNaiyRL-V-66" style="edgeStyle=orthogonalEdgeStyle;rounded=0;orthogonalLoop=1;jettySize=auto;html=1;exitX=0.5;exitY=1;exitDx=0;exitDy=0;entryX=0.25;entryY=1;entryDx=0;entryDy=0;" parent="1" source="LZqOGTRee8LFNaiyRL-V-43" target="LZqOGTRee8LFNaiyRL-V-18" edge="1">
          <mxGeometry relative="1" as="geometry">
            <mxPoint x="140" y="910" as="targetPoint" />
            <Array as="points">
              <mxPoint x="90" y="1520" />
              <mxPoint x="640" y="1520" />
              <mxPoint x="640" y="900" />
              <mxPoint x="65" y="900" />
            </Array>
          </mxGeometry>
        </mxCell>
        <mxCell id="LZqOGTRee8LFNaiyRL-V-43" value="RID" style="whiteSpace=wrap;html=1;align=center;fontStyle=4" parent="1" vertex="1">
          <mxGeometry x="40" y="1430" width="100" height="40" as="geometry" />
        </mxCell>
        <mxCell id="LZqOGTRee8LFNaiyRL-V-44" value="Quantity" style="whiteSpace=wrap;html=1;align=center;" parent="1" vertex="1">
          <mxGeometry x="240" y="1430" width="100" height="40" as="geometry" />
        </mxCell>
        <mxCell id="LZqOGTRee8LFNaiyRL-V-45" value="Left" style="whiteSpace=wrap;html=1;align=center;" parent="1" vertex="1">
          <mxGeometry x="440" y="1430" width="100" height="40" as="geometry" />
        </mxCell>
        <mxCell id="LZqOGTRee8LFNaiyRL-V-46" value="Price" style="whiteSpace=wrap;html=1;align=center;" parent="1" vertex="1">
          <mxGeometry x="340" y="1430" width="100" height="40" as="geometry" />
        </mxCell>
        <mxCell id="LZqOGTRee8LFNaiyRL-V-47" value="ProductIMGS" style="text;html=1;align=left;verticalAlign=middle;whiteSpace=wrap;rounded=0;fontStyle=1;fontSize=18;" parent="1" vertex="1">
          <mxGeometry x="40" y="640" width="100" height="40" as="geometry" />
        </mxCell>
        <mxCell id="LZqOGTRee8LFNaiyRL-V-50" style="edgeStyle=orthogonalEdgeStyle;rounded=0;orthogonalLoop=1;jettySize=auto;html=1;entryX=0;entryY=1;entryDx=0;entryDy=0;" parent="1" source="LZqOGTRee8LFNaiyRL-V-48" target="LZqOGTRee8LFNaiyRL-V-8" edge="1">
          <mxGeometry relative="1" as="geometry">
            <Array as="points">
              <mxPoint x="90" y="740" />
              <mxPoint x="340" y="740" />
              <mxPoint x="340" y="600" />
              <mxPoint x="40" y="600" />
            </Array>
          </mxGeometry>
        </mxCell>
        <mxCell id="LZqOGTRee8LFNaiyRL-V-48" value="PID" style="whiteSpace=wrap;html=1;align=center;fontStyle=4" parent="1" vertex="1">
          <mxGeometry x="40" y="680" width="100" height="40" as="geometry" />
        </mxCell>
        <mxCell id="LZqOGTRee8LFNaiyRL-V-49" value="URL" style="whiteSpace=wrap;html=1;align=center;fontStyle=4" parent="1" vertex="1">
          <mxGeometry x="140" y="680" width="100" height="40" as="geometry" />
        </mxCell>
        <mxCell id="LZqOGTRee8LFNaiyRL-V-51" value="Orders" style="text;html=1;align=left;verticalAlign=middle;whiteSpace=wrap;rounded=0;fontStyle=1;fontSize=18;" parent="1" vertex="1">
          <mxGeometry x="40" y="1560" width="100" height="40" as="geometry" />
        </mxCell>
        <mxCell id="LZqOGTRee8LFNaiyRL-V-52" value="OrderID" style="whiteSpace=wrap;html=1;align=center;fontStyle=4" parent="1" vertex="1">
          <mxGeometry x="40" y="1600" width="100" height="40" as="geometry" />
        </mxCell>
        <mxCell id="LZqOGTRee8LFNaiyRL-V-68" style="edgeStyle=orthogonalEdgeStyle;rounded=0;orthogonalLoop=1;jettySize=auto;html=1;" parent="1" source="LZqOGTRee8LFNaiyRL-V-54" edge="1" target="LZqOGTRee8LFNaiyRL-V-5">
          <mxGeometry relative="1" as="geometry">
            <mxPoint x="160" y="100" as="targetPoint" />
            <mxPoint x="240" y="1650" as="sourcePoint" />
            <Array as="points">
              <mxPoint x="190" y="1680" />
              <mxPoint x="590" y="1680" />
              <mxPoint x="590" y="120" />
              <mxPoint x="140" y="120" />
            </Array>
          </mxGeometry>
        </mxCell>
        <mxCell id="LZqOGTRee8LFNaiyRL-V-54" value="Key" style="whiteSpace=wrap;html=1;align=center;fontStyle=4" parent="1" vertex="1">
          <mxGeometry x="140" y="1600" width="100" height="40" as="geometry" />
        </mxCell>
        <mxCell id="LZqOGTRee8LFNaiyRL-V-55" value="Date" style="whiteSpace=wrap;html=1;align=center;fontStyle=0" parent="1" vertex="1">
          <mxGeometry x="240" y="1600" width="100" height="40" as="geometry" />
        </mxCell>
        <mxCell id="LZqOGTRee8LFNaiyRL-V-72" value="Admin" style="text;html=1;align=left;verticalAlign=middle;whiteSpace=wrap;rounded=0;fontStyle=1;fontSize=18;" parent="1" vertex="1">
          <mxGeometry x="40" y="200" width="110" height="40" as="geometry" />
        </mxCell>
        <mxCell id="LZqOGTRee8LFNaiyRL-V-75" style="edgeStyle=orthogonalEdgeStyle;rounded=0;orthogonalLoop=1;jettySize=auto;html=1;" parent="1" source="LZqOGTRee8LFNaiyRL-V-73" target="LZqOGTRee8LFNaiyRL-V-5" edge="1">
          <mxGeometry relative="1" as="geometry">
            <Array as="points">
              <mxPoint x="90" y="300" />
              <mxPoint x="540" y="300" />
              <mxPoint x="540" y="170" />
              <mxPoint x="40" y="170" />
            </Array>
          </mxGeometry>
        </mxCell>
        <mxCell id="LZqOGTRee8LFNaiyRL-V-73" value="Key" style="whiteSpace=wrap;html=1;align=center;fontStyle=4" parent="1" vertex="1">
          <mxGeometry x="40" y="240" width="100" height="40" as="geometry" />
        </mxCell>
        <mxCell id="LZqOGTRee8LFNaiyRL-V-74" value="Privileges" style="whiteSpace=wrap;html=1;align=center;" parent="1" vertex="1">
          <mxGeometry x="140" y="240" width="100" height="40" as="geometry" />
        </mxCell>
        <mxCell id="LZqOGTRee8LFNaiyRL-V-76" value="Email" style="whiteSpace=wrap;html=1;align=center;" parent="1" vertex="1">
          <mxGeometry x="540" y="40" width="100" height="40" as="geometry" />
        </mxCell>
        <mxCell id="LZqOGTRee8LFNaiyRL-V-77" value="Phone_Number" style="whiteSpace=wrap;html=1;align=center;" parent="1" vertex="1">
          <mxGeometry x="640" y="40" width="100" height="40" as="geometry" />
        </mxCell>
        <mxCell id="fWRmZdhHlBsLbpRWqn5T-1" value="lName" style="whiteSpace=wrap;html=1;align=center;" parent="1" vertex="1">
          <mxGeometry x="240" y="40" width="100" height="40" as="geometry" />
        </mxCell>
        <mxCell id="fBDav_YVkI-DnIH-kLrZ-3" value="OrderItems" style="text;html=1;align=left;verticalAlign=middle;whiteSpace=wrap;rounded=0;fontStyle=1;fontSize=18;" vertex="1" parent="1">
          <mxGeometry x="40" y="1720" width="100" height="40" as="geometry" />
        </mxCell>
        <mxCell id="fBDav_YVkI-DnIH-kLrZ-6" style="edgeStyle=orthogonalEdgeStyle;rounded=0;orthogonalLoop=1;jettySize=auto;html=1;exitX=0.5;exitY=1;exitDx=0;exitDy=0;" edge="1" parent="1" source="fBDav_YVkI-DnIH-kLrZ-4" target="LZqOGTRee8LFNaiyRL-V-52">
          <mxGeometry relative="1" as="geometry">
            <Array as="points">
              <mxPoint x="90" y="1830" />
              <mxPoint x="590" y="1830" />
              <mxPoint x="590" y="1710" />
              <mxPoint x="90" y="1710" />
            </Array>
          </mxGeometry>
        </mxCell>
        <mxCell id="fBDav_YVkI-DnIH-kLrZ-4" value="OID" style="whiteSpace=wrap;html=1;align=center;fontStyle=4" vertex="1" parent="1">
          <mxGeometry x="40" y="1760" width="100" height="40" as="geometry" />
        </mxCell>
        <mxCell id="fBDav_YVkI-DnIH-kLrZ-7" value="UnitPrice" style="whiteSpace=wrap;html=1;align=center;fontStyle=0" vertex="1" parent="1">
          <mxGeometry x="440" y="1760" width="100" height="40" as="geometry" />
        </mxCell>
        <mxCell id="fBDav_YVkI-DnIH-kLrZ-8" value="Quantity" style="whiteSpace=wrap;html=1;align=center;fontStyle=0" vertex="1" parent="1">
          <mxGeometry x="340" y="1760" width="100" height="40" as="geometry" />
        </mxCell>
        <mxCell id="fBDav_YVkI-DnIH-kLrZ-11" style="edgeStyle=orthogonalEdgeStyle;rounded=0;orthogonalLoop=1;jettySize=auto;html=1;exitX=0.5;exitY=1;exitDx=0;exitDy=0;entryX=1;entryY=1;entryDx=0;entryDy=0;" edge="1" parent="1" source="fBDav_YVkI-DnIH-kLrZ-9" target="LZqOGTRee8LFNaiyRL-V-8">
          <mxGeometry relative="1" as="geometry">
            <mxPoint x="140" y="1170" as="targetPoint" />
            <Array as="points">
              <mxPoint x="190" y="1820" />
              <mxPoint x="730" y="1820" />
              <mxPoint x="730" y="550" />
              <mxPoint x="140" y="550" />
            </Array>
          </mxGeometry>
        </mxCell>
        <mxCell id="fBDav_YVkI-DnIH-kLrZ-9" value="PID" style="whiteSpace=wrap;html=1;align=center;fontStyle=4" vertex="1" parent="1">
          <mxGeometry x="140" y="1760" width="100" height="40" as="geometry" />
        </mxCell>
        <mxCell id="fBDav_YVkI-DnIH-kLrZ-12" style="edgeStyle=orthogonalEdgeStyle;rounded=0;orthogonalLoop=1;jettySize=auto;html=1;exitX=0.5;exitY=1;exitDx=0;exitDy=0;" edge="1" parent="1" source="fBDav_YVkI-DnIH-kLrZ-10" target="LZqOGTRee8LFNaiyRL-V-18">
          <mxGeometry relative="1" as="geometry">
            <mxPoint x="300" y="1400" as="targetPoint" />
            <Array as="points">
              <mxPoint x="290" y="1810" />
              <mxPoint x="650" y="1810" />
              <mxPoint x="650" y="880" />
              <mxPoint x="110" y="880" />
            </Array>
          </mxGeometry>
        </mxCell>
        <mxCell id="fBDav_YVkI-DnIH-kLrZ-10" value="RID" style="whiteSpace=wrap;html=1;align=center;fontStyle=4" vertex="1" parent="1">
          <mxGeometry x="240" y="1760" width="100" height="40" as="geometry" />
        </mxCell>
      </root>
    </mxGraphModel>
  </diagram>
</mxfile>
